<?xml version="1.0" encoding="UTF-8" standalone="no"?>
<!-- Generator: Adobe Illustrator 22.1.0, SVG Export Plug-In . SVG Version: 6.00 Build 0)  -->

<svg
   version="1.1"
   id="Calque_1"
   x="0px"
   y="0px"
   viewBox="0 0 21.900293 46.4"
   xml:space="preserve"
   sodipodi:docname="logo-apiz.a.svg"
   inkscape:version="1.3 (0e150ed6c4, 2023-07-21)"
   width="44.013504"
   height="46.400002"
   xmlns:inkscape="http://www.inkscape.org/namespaces/inkscape"
   xmlns:sodipodi="http://sodipodi.sourceforge.net/DTD/sodipodi-0.dtd"
   xmlns="http://www.w3.org/2000/svg"
   xmlns:svg="http://www.w3.org/2000/svg"><defs
   id="defs26" /><sodipodi:namedview
   id="namedview26"
   pagecolor="#ffffff"
   bordercolor="#666666"
   borderopacity="1.0"
   inkscape:showpageshadow="2"
   inkscape:pageopacity="0.0"
   inkscape:pagecheckerboard="0"
   inkscape:deskcolor="#d1d1d1"
   showguides="true"
   inkscape:zoom="8.0000001"
   inkscape:cx="25.0625"
   inkscape:cy="59.312499"
   inkscape:window-width="2560"
   inkscape:window-height="1369"
   inkscape:window-x="2552"
   inkscape:window-y="-8"
   inkscape:window-maximized="1"
   inkscape:current-layer="Calque_1" />&#10;<style
   type="text/css"
   id="style1">&#10;	.st0{fill:#56838A;}&#10;	.st1{fill:#E6550E;}&#10;</style>&#10;<g
   id="g26"
   transform="translate(-14.669388,-2)">&#10;	<path
   class="st0"
   d="M 3.7,46.7 24.2,2.7 C 24.4,2.3 24.9,2 25.3,2 H 26 c 0.5,0 0.9,0.3 1.1,0.8 l 20.4,43.9 c 0.4,0.8 -0.2,1.7 -1.1,1.7 h -7.3 c -1.2,0 -1.7,-0.4 -2.3,-1.7 l -3.2,-7.1 c 0,0 -3.5,1.1 -8.1,1.3 -4.6,0.2 -8.1,-1.2 -8.1,-1.2 l -3.2,7.1 c -0.3,0.8 -1.1,1.6 -2.3,1.6 H 4.8 C 3.9,48.4 3.4,47.6 3.7,46.7 M 30.3,32.1 25.6,22 H 25.5 L 21,32 c 0,0 1.8,0.8 4.7,0.8 2.7,0 4.6,-0.7 4.6,-0.7"
   id="path1" />&#10;	&#10;	&#10;	&#10;	<path
   class="st1"
   d="m 38.3,26.9 c -7.7,8.2 -15.9,5.400002 -17.3,5.100002 -1.183949,2.646541 -2.383939,5.129513 -3.601562,7.699218 3.096621,1.175651 14.686646,3.878877 24.576161,-4.889667 z"
   id="path5"
   style="fill:#e6550e;fill-opacity:1"
   sodipodi:nodetypes="ccccc" />&#10;	&#10;</g>&#10;</svg>
