<?xml version="1.0" encoding="UTF-8" standalone="no"?>
<!-- Generator: Adobe Illustrator 22.1.0, SVG Export Plug-In . SVG Version: 6.00 Build 0)  -->

<svg
   version="1.1"
   id="Calque_1"
   x="0px"
   y="0px"
   viewBox="0 0 144.7 71.3"
   style="enable-background:new 0 0 144.7 71.3;"
   xml:space="preserve"
   sodipodi:docname="logo-apiz.white.svg"
   inkscape:version="1.3 (0e150ed6c4, 2023-07-21)"
   xmlns:inkscape="http://www.inkscape.org/namespaces/inkscape"
   xmlns:sodipodi="http://sodipodi.sourceforge.net/DTD/sodipodi-0.dtd"
   xmlns="http://www.w3.org/2000/svg"
   xmlns:svg="http://www.w3.org/2000/svg"><defs
   id="defs26" /><sodipodi:namedview
   id="namedview26"
   pagecolor="#ffffff"
   bordercolor="#666666"
   borderopacity="1.0"
   inkscape:showpageshadow="2"
   inkscape:pageopacity="0.0"
   inkscape:pagecheckerboard="0"
   inkscape:deskcolor="#d1d1d1"
   showguides="true"
   inkscape:zoom="5.6568543"
   inkscape:cx="55.06594"
   inkscape:cy="33.499183"
   inkscape:window-width="2560"
   inkscape:window-height="1369"
   inkscape:window-x="2552"
   inkscape:window-y="-8"
   inkscape:window-maximized="1"
   inkscape:current-layer="g25" />&#10;<style
   type="text/css"
   id="style1">&#10;	.st0{fill:#56838A;}&#10;	.st1{fill:#E6550E;}&#10;</style>&#10;<g
   id="g26">&#10;	<path
   class="st0"
   d="M3.7,46.7L24.2,2.7C24.4,2.3,24.9,2,25.3,2H26c0.5,0,0.9,0.3,1.1,0.8l20.4,43.9c0.4,0.8-0.2,1.7-1.1,1.7h-7.3   c-1.2,0-1.7-0.4-2.3-1.7l-3.2-7.1c0,0-3.5,1.1-8.1,1.3c-4.6,0.2-8.1-1.2-8.1-1.2l-3.2,7.1c-0.3,0.8-1.1,1.6-2.3,1.6H4.8   C3.9,48.4,3.4,47.6,3.7,46.7 M30.3,32.1l-4.7-10.1h-0.1L21,32c0,0,1.8,0.8,4.7,0.8C28.4,32.8,30.3,32.1,30.3,32.1"
   id="path1"
   style="fill:#ffffff;fill-opacity:1" />&#10;	<path
   class="st0"
   d="M 53.004688,3.3 C 53.004688,2.6 53.7,2 54.5,2 h 15.9 c 8.1,0 14.8,6.6 14.8,14.6 0,8.2 -6.7,14.9 -14.8,14.9 h -7 v 15.6 c 0,0.7 -0.6,1.3 -1.3,1.3 H 54.3 C 53.5,48.4 53,47.8 53,47.1 Z M 69.9,21.802344 c 2.9,0 5.3,-2.202344 5.3,-5.202344 0,-2.8 -2.4,-4.9 -5.3,-4.9 h -6.3 v 10.1 z"
   id="path2"
   sodipodi:nodetypes="csssscssscccssccc"
   style="fill:#ffffff;fill-opacity:1" />&#10;	<path
   class="st0"
   d="M92,3.3C92,2.6,92.6,2,93.3,2h8c0.7,0,1.3,0.6,1.3,1.3v43.8c0,0.7-0.6,1.3-1.3,1.3h-8c-0.7,0-1.3-0.6-1.3-1.3   V3.3z"
   id="path3"
   style="fill:#ffffff;fill-opacity:1" />&#10;	<path
   class="st0"
   d="M110.9,45.9c0.2-0.5,16.5-34.2,16.5-34.2h-15.4c-0.7,0-1.3-0.6-1.3-1.3V3.2c0-0.7,0.6-1.3,1.3-1.3h29.1   c0.7,0,1.3,0.6,1.3,1.3c0,0,0.1,0.5-0.2,1.1c-0.2,0.5-15.9,34.3-15.9,34.3h14.7c0.8,0,1.3,0.6,1.3,1.3v7.2c0,0.7-0.5,1.3-1.3,1.3   H112c-0.7,0-1.1-0.5-1.3-1.3C110.6,46.7,110.6,46.4,110.9,45.9"
   id="path4"
   style="fill:#ffffff;fill-opacity:1" />&#10;	<path
   class="st1"
   d="m 38.3,26.9 c -7.7,8.2 -15.9,5.400002 -17.3,5.100002 -1.183949,2.646541 -2.383939,5.129513 -3.601562,7.699218 3.096621,1.175651 14.686646,3.878877 24.576161,-4.889667 z"
   id="path5"
   style="fill:#ffffff;fill-opacity:1"
   sodipodi:nodetypes="ccccc" />&#10;	<g
   id="g25">&#10;		<path
   class="st1"
   d="M3.2,69.9l4.4-9.6c0.1-0.1,0.2-0.2,0.2-0.2h0.2c0.1,0,0.2,0.1,0.2,0.2l4.4,9.6c0.1,0.2,0,0.4-0.2,0.4h-0.8    c-0.2,0-0.3-0.1-0.3-0.2l-0.9-2H5.6c-0.3,0.7-0.6,1.3-0.9,2c-0.1,0.1-0.2,0.2-0.3,0.2H3.5C3.3,70.2,3.1,70,3.2,69.9z M9.7,66.9    L7.9,63H7.9l-1.7,3.9H9.7z"
   id="path6"
   style="fill:#ffffff;fill-opacity:1" />&#10;		<path
   class="st1"
   d="M15.9,64.4c0.8,0,1.2,0.3,1.4,0.3v-4.2c0-0.2,0.2-0.3,0.3-0.3h0.8c0.2,0,0.3,0.2,0.3,0.3v9.5    c0,0.2-0.2,0.3-0.3,0.3h-0.5c-0.2,0-0.2-0.1-0.2-0.2l-0.2-0.4c0,0-0.7,0.8-1.8,0.8c-1.5,0-2.6-1.4-2.6-3    C13.1,65.7,14.3,64.4,15.9,64.4z M16,69.1c0.9,0,1.3-0.7,1.4-0.8V66c0,0-0.5-0.4-1.2-0.4c-1,0-1.7,0.8-1.7,1.7    C14.5,68.4,15.1,69.1,16,69.1z"
   id="path7"
   style="fill:#ffffff;fill-opacity:1" />&#10;		<path
   class="st1"
   d="M19.7,64.8c-0.1-0.2,0-0.3,0.2-0.3h0.8c0.2,0,0.2,0.1,0.2,0.2l1.5,3.4l0,0l1.5-3.4c0.1-0.2,0.2-0.2,0.4-0.2    h0.7c0.2,0,0.3,0.2,0.2,0.3l-2.6,5.4c0,0.1-0.2,0.2-0.2,0.2h-0.1c-0.2,0-0.2-0.1-0.2-0.2L19.7,64.8z"
   id="path8"
   style="fill:#ffffff;fill-opacity:1" />&#10;		<path
   class="st1"
   d="M28.3,66.6c0.6,0,1.1,0.2,1.1,0.2c0-0.9-0.2-1.3-0.9-1.3c-0.7,0-1.3,0.2-1.6,0.2c-0.2,0.1-0.3-0.1-0.3-0.2    L26.5,65c-0.1-0.2,0.1-0.3,0.2-0.3c0.1-0.1,0.9-0.3,2-0.3c1.8,0,2,1.1,2,2.6v3c0,0.2-0.2,0.3-0.3,0.3H30c-0.2,0-0.2-0.1-0.2-0.2    l-0.2-0.4c-0.3,0.3-0.9,0.8-1.7,0.8c-1.1,0-1.8-0.8-1.8-1.9C26.1,67.4,26.9,66.6,28.3,66.6z M28.2,69.3c0.6,0,1.1-0.5,1.3-0.7    v-0.9c-0.1-0.1-0.5-0.2-1-0.2c-0.7,0-1.1,0.4-1.1,1C27.3,69,27.6,69.3,28.2,69.3z"
   id="path9"
   style="fill:#ffffff;fill-opacity:1" />&#10;		<path
   class="st1"
   d="M32.4,64.8c0-0.2,0.2-0.3,0.3-0.3h0.4c0.2,0,0.2,0.1,0.2,0.2l0.2,0.5c0.1-0.2,0.8-0.8,2-0.8    c1.7,0,2.4,1.2,2.4,2.7v2.9c0,0.2-0.2,0.3-0.3,0.3h-0.8c-0.2,0-0.3-0.2-0.3-0.3v-2.9c0-0.9-0.5-1.4-1.2-1.4    c-0.9,0-1.5,0.7-1.6,0.8v3.5c0,0.2-0.1,0.3-0.3,0.3h-0.8c-0.2,0-0.3-0.2-0.3-0.3L32.4,64.8L32.4,64.8z"
   id="path10"
   style="fill:#ffffff;fill-opacity:1" />&#10;		<path
   class="st1"
   d="M42.3,64.4c0.9,0,1.5,0.4,2.1,1c0.1,0.2,0.1,0.3-0.1,0.4l-0.5,0.5c-0.2,0.2-0.3,0.1-0.4-0.1    c-0.2-0.3-0.7-0.5-1.1-0.5c-0.9,0-1.7,0.8-1.7,1.7s0.7,1.8,1.7,1.8c0.8,0,1.1-0.4,1.4-0.7c0.2-0.2,0.2-0.2,0.4,0l0.4,0.3    c0.2,0.2,0.2,0.2,0.1,0.4c-0.5,0.8-1.2,1.2-2.2,1.2c-1.6,0-3-1.3-3-3C39.3,65.7,40.7,64.4,42.3,64.4z"
   id="path11"
   style="fill:#ffffff;fill-opacity:1" />&#10;		<path
   class="st1"
   d="M48.3,64.4c1.5,0,2.6,1.1,2.6,2.6c0,0.1,0,0.3,0,0.4c0,0.2-0.2,0.2-0.2,0.2h-3.9c0.1,0.8,0.7,1.5,1.7,1.5    c0.5,0,1-0.2,1.3-0.4c0.2-0.1,0.3-0.2,0.4,0l0.4,0.5c0.1,0.2,0.2,0.2,0,0.4c-0.5,0.4-1.1,0.7-2.1,0.7c-1.7,0-2.9-1.4-2.9-3    C45.4,65.7,46.6,64.4,48.3,64.4z M49.6,66.8c-0.1-0.7-0.6-1.3-1.3-1.3c-0.8,0-1.4,0.5-1.4,1.3H49.6z"
   id="path12"
   style="fill:#ffffff;fill-opacity:1" />&#10;		<path
   class="st1"
   d="M54.7,64.4c0.8,0,1.2,0.3,1.4,0.3v-4.2c0-0.2,0.2-0.3,0.3-0.3h0.8c0.2,0,0.3,0.2,0.3,0.3v9.5    c0,0.2-0.2,0.3-0.3,0.3h-0.5c-0.2,0-0.2-0.1-0.2-0.2l-0.2-0.4c0,0-0.7,0.8-1.8,0.8c-1.5,0-2.6-1.4-2.6-3    C51.9,65.7,53.1,64.4,54.7,64.4z M54.8,69.1c0.9,0,1.3-0.7,1.4-0.8V66c0,0-0.5-0.4-1.2-0.4c-1,0-1.7,0.8-1.7,1.7    C53.2,68.4,53.8,69.1,54.8,69.1z"
   id="path13"
   style="fill:#ffffff;fill-opacity:1" />&#10;		<path
   class="st1"
   d="M62.9,60.6c0-0.2,0.2-0.3,0.3-0.3h5.7c0.2,0,0.3,0.2,0.3,0.3v0.8c0,0.2-0.2,0.3-0.3,0.3h-4.5v2.9h3.8    c0.2,0,0.3,0.2,0.3,0.3v0.8c0,0.2-0.2,0.3-0.3,0.3h-3.8v3.1h4.5c0.2,0,0.3,0.2,0.3,0.3v0.8c0,0.2-0.2,0.3-0.3,0.3h-5.7    c-0.2,0-0.3-0.2-0.3-0.3V60.6z"
   id="path14"
   style="fill:#ffffff;fill-opacity:1" />&#10;		<path
   class="st1"
   d="M71.3,60.6c0-0.2,0.2-0.3,0.3-0.3h3.9c1.7,0,3.1,1.4,3.1,3.1c0,1.3-0.9,2.4-2.1,2.9l2,3.6    c0.1,0.2,0,0.4-0.2,0.4h-1.1c-0.2,0-0.2-0.1-0.2-0.2L75,66.3h-2.2v3.6c0,0.2-0.2,0.3-0.3,0.3h-0.9c-0.2,0-0.3-0.2-0.3-0.3    L71.3,60.6L71.3,60.6z M75.3,65.1c0.9,0,1.7-0.8,1.7-1.8c0-0.9-0.8-1.7-1.7-1.7h-2.6v3.5L75.3,65.1L75.3,65.1z"
   id="path15"
   style="fill:#ffffff;fill-opacity:1" />&#10;		<path
   class="st1"
   d="M80.7,60.6c0-0.2,0.2-0.3,0.3-0.3h3.2c1.7,0,3.2,1.4,3.2,3.2c0,1.8-1.4,3.2-3.2,3.2h-2.1V70    c0,0.2-0.2,0.3-0.3,0.3H81c-0.2,0-0.3-0.2-0.3-0.3L80.7,60.6L80.7,60.6z M84.2,65.2c1,0,1.8-0.8,1.8-1.8c0-1-0.8-1.7-1.8-1.7h-2    v3.5H84.2z"
   id="path16"
   style="fill:#ffffff;fill-opacity:1" />&#10;		<path
   class="st1"
   d="M91.7,68.8c0.2-0.2,0.2-0.4,0.4-0.6c0.2-0.2,0.3-0.2,0.5-0.2c0.1,0.1,1.2,1,2.3,1c1,0,1.6-0.6,1.6-1.4    c0-0.8-0.8-1.4-2.2-2c-1.4-0.6-2.6-1.4-2.6-3c0-1.1,0.8-2.6,3.2-2.6c1.4,0,2.5,0.8,2.6,0.8s0.2,0.3,0.1,0.5    c-0.2,0.2-0.2,0.4-0.4,0.5c-0.2,0.2-0.3,0.3-0.5,0.2c-0.1-0.1-1.1-0.7-2-0.7c-1.2,0-1.6,0.8-1.6,1.3c0,0.8,0.6,1.3,1.8,1.8    c1.7,0.7,3.1,1.4,3.1,3.2c0,1.5-1.4,2.7-3.2,2.7c-1.7,0-2.9-0.9-3.1-1.1C91.6,69.1,91.6,69,91.7,68.8z"
   id="path17"
   style="fill:#ffffff;fill-opacity:1" />&#10;		<path
   class="st1"
   d="M101.9,64.4c1.6,0,2.9,1.4,2.9,3c0,1.7-1.3,3-2.9,3c-1.6,0-2.9-1.4-2.9-3C99.1,65.7,100.4,64.4,101.9,64.4z     M101.9,69.1c0.9,0,1.6-0.8,1.6-1.8c0-1-0.7-1.7-1.6-1.7s-1.6,0.8-1.6,1.7C100.4,68.4,101.1,69.1,101.9,69.1z"
   id="path18"
   style="fill:#ffffff;fill-opacity:1" />&#10;		<path
   class="st1"
   d="M106.3,60.6c0-0.2,0.2-0.3,0.3-0.3h0.8c0.2,0,0.3,0.2,0.3,0.3V70c0,0.2-0.2,0.3-0.3,0.3h-0.8    c-0.2,0-0.3-0.2-0.3-0.3V60.6z"
   id="path19"
   style="fill:#ffffff;fill-opacity:1" />&#10;		<path
   class="st1"
   d="M109.4,64.8c0-0.2,0.2-0.3,0.3-0.3h0.8c0.2,0,0.3,0.2,0.3,0.3v2.9c0,0.9,0.5,1.4,1.2,1.4c0.8,0,1.4-0.7,1.4-1    v-3.4c0-0.2,0.2-0.3,0.3-0.3h0.8c0.2,0,0.3,0.2,0.3,0.3V70c0,0.2-0.2,0.3-0.3,0.3h-0.4c-0.2,0-0.2-0.1-0.2-0.2l-0.2-0.4    c-0.2,0.2-0.8,0.8-1.9,0.8c-1.7,0-2.3-1.2-2.3-2.7v-2.9H109.4z"
   id="path20"
   style="fill:#ffffff;fill-opacity:1" />&#10;		<path
   class="st1"
   d="M116.9,65.7h-0.6c-0.2,0-0.3-0.2-0.3-0.3v-0.7c0-0.2,0.2-0.3,0.3-0.3h0.6v-1.6c0-0.2,0.2-0.3,0.3-0.3h0.8    c0.2,0,0.2,0.2,0.2,0.3v1.6h1.4c0.2,0,0.3,0.2,0.3,0.3v0.7c0,0.2-0.2,0.3-0.3,0.3h-1.4v2.9c0,0.5,0.2,0.6,0.5,0.6    c0.3,0,0.7-0.2,0.9-0.2c0.2-0.1,0.3,0,0.3,0.2l0.2,0.6c0.1,0.2,0,0.3-0.2,0.4c-0.2,0.1-1,0.5-1.7,0.5c-1.1,0-1.4-0.7-1.4-1.7    L116.9,65.7L116.9,65.7z"
   id="path21"
   style="fill:#ffffff;fill-opacity:1" />&#10;		<path
   class="st1"
   d="M121.2,61.4c0-0.5,0.4-0.8,0.8-0.8s0.8,0.4,0.8,0.8c0,0.5-0.4,0.8-0.8,0.8S121.2,61.8,121.2,61.4z     M121.4,64.8c0-0.2,0.2-0.3,0.3-0.3h0.8c0.2,0,0.3,0.2,0.3,0.3V70c0,0.2-0.2,0.3-0.3,0.3h-0.8c-0.2,0-0.3-0.2-0.3-0.3V64.8z"
   id="path22"
   style="fill:#ffffff;fill-opacity:1" />&#10;		<path
   class="st1"
   d="M127.1,64.4c1.6,0,2.9,1.4,2.9,3c0,1.7-1.3,3-2.9,3c-1.6,0-2.9-1.4-2.9-3C124.2,65.7,125.4,64.4,127.1,64.4z     M127.1,69.1c0.9,0,1.6-0.8,1.6-1.8c0-1-0.7-1.7-1.6-1.7c-0.9,0-1.6,0.8-1.6,1.7C125.4,68.4,126.2,69.1,127.1,69.1z"
   id="path23"
   style="fill:#ffffff;fill-opacity:1" />&#10;		<path
   class="st1"
   d="M131.4,64.8c0-0.2,0.2-0.3,0.3-0.3h0.4c0.2,0,0.2,0.1,0.2,0.2l0.2,0.5c0.1-0.2,0.8-0.8,2-0.8    c1.7,0,2.4,1.2,2.4,2.7v2.9c0,0.2-0.2,0.3-0.3,0.3h-0.8c-0.2,0-0.3-0.2-0.3-0.3v-2.9c0-0.9-0.5-1.4-1.2-1.4    c-0.9,0-1.5,0.7-1.6,0.8v3.5c0,0.2-0.1,0.3-0.3,0.3h-0.8c-0.2,0-0.3-0.2-0.3-0.3L131.4,64.8L131.4,64.8z"
   id="path24"
   style="fill:#ffffff;fill-opacity:1" />&#10;		<path
   class="st1"
   d="M138.3,69.5l0.3-0.5c0.1-0.2,0.2-0.2,0.4-0.1c0,0,0.6,0.4,1.4,0.4c0.5,0,0.7-0.2,0.7-0.5    c0-0.4-0.3-0.6-1.1-0.9c-0.9-0.4-1.7-0.9-1.7-1.9c0-0.7,0.6-1.6,2-1.6c0.8,0,1.4,0.2,1.7,0.5c0.2,0.1,0.2,0.3,0.2,0.4l-0.2,0.5    c-0.1,0.2-0.2,0.2-0.4,0.2c0,0-0.6-0.3-1.2-0.3c-0.5,0-0.7,0.2-0.7,0.5c0,0.4,0.4,0.5,0.9,0.8c1.1,0.5,1.9,0.9,1.9,2    c0,0.9-0.8,1.7-2.1,1.7c-1,0-1.6-0.4-1.9-0.6C138.3,69.7,138.2,69.6,138.3,69.5z"
   id="path25"
   style="fill:#ffffff;fill-opacity:1" />&#10;	</g>&#10;</g>&#10;</svg>
